<svg width="464" height="240" viewBox="0 0 464 240" fill="none" xmlns="http://www.w3.org/2000/svg">
<rect x="72" y="72" width="96" height="96" rx="17.4375" fill="url(#paint0_linear)"/>
<path fill-rule="evenodd" clip-rule="evenodd" d="M111 126.341C110.058 126.341 109.297 127.101 109.297 128.042C109.297 128.985 110.058 129.746 111 129.746C111.941 129.746 112.702 128.985 112.702 128.042C112.702 127.101 111.941 126.341 111 126.341" fill="white"/>
<path fill-rule="evenodd" clip-rule="evenodd" d="M127.054 131.449C126.113 131.449 125.352 132.209 125.352 133.15C125.352 134.093 126.113 134.854 127.054 134.854C127.996 134.854 128.757 134.093 128.757 133.15C128.757 132.209 127.996 131.449 127.054 131.449" fill="white"/>
<path fill-rule="evenodd" clip-rule="evenodd" d="M152.256 135.749C151.688 136.033 150.872 136.048 150.118 135.788C149.61 135.608 149.061 135.439 148.514 135.271C147.499 134.961 145.803 134.444 145.481 134.053C144.951 133.346 143.945 133.206 143.238 133.739C142.531 134.271 142.39 135.273 142.924 135.98V135.98C143.227 136.389 143.348 136.932 143.001 137.304C139.719 140.826 129.401 146.517 115.191 143.412C108.343 141.915 103.734 139.181 101.858 135.51C100.506 132.857 100.814 130.126 101.461 128.642C103.321 124.778 116.75 115.881 125.324 110.843C126.084 110.392 126.338 109.412 125.89 108.649C125.441 107.889 124.418 107.583 123.698 108.081C123.497 108.199 123.153 108.402 122.694 108.677C119.607 110.525 115.655 110.337 112.075 109.986V109.986C107.617 109.544 97.3152 107.577 93.9874 106.17C91.6037 105.162 86.1934 102.492 87.3916 99.487C87.6693 98.7865 88.9744 97.6525 91.8024 96.5718C93.6838 95.8544 95.5573 95.414 97.0885 95.189C97.2232 95.1692 97.2751 95.3459 97.1529 95.4057V95.4057C95.3443 96.2839 93.3813 97.2599 91.9796 98.3991C91.8192 98.5295 91.5769 98.5654 91.4307 98.4192V98.4192C90.822 97.7827 89.8181 97.7358 89.1687 98.3679C88.5279 98.9787 88.5045 99.9932 89.1175 100.632C89.6878 101.23 90.5315 101.68 91.6058 102.024C91.6464 102.037 91.6827 102.056 91.7233 102.065C95.457 103.214 102.095 103.071 111.455 102.699C115.49 102.541 119.3 102.392 122.479 102.454C133.015 102.663 140.933 106.853 146.688 115.266C149.99 120.094 149.094 124.855 147.313 129.068C147.121 129.523 146.542 129.667 146.23 129.284V129.284C145.677 128.595 144.654 128.498 143.981 129.03C143.289 129.583 143.174 130.589 143.725 131.281C144.05 131.691 145.72 133.611 147.79 133.447C147.828 133.449 147.862 133.445 147.901 133.443C147.963 133.434 148.027 133.445 148.093 133.434C149.507 133.176 150.396 133.244 151.226 133.765C152.326 134.459 152.869 134.874 152.76 135.219C152.696 135.437 152.532 135.593 152.256 135.749M108.569 117.907C108.393 118.037 108.218 118.165 108.044 118.293C107.806 118.469 107.418 118.382 107.234 118.149V118.149C107.01 117.866 107.223 117.576 107.58 117.634C107.875 117.682 108.213 117.78 108.569 117.907M152.769 130.954V130.954C151.674 130.261 150.833 128.952 151.21 127.713C152.49 123.499 152.754 118.464 149.332 113.457C143.044 104.258 134.028 99.4785 122.541 99.25C119.269 99.1859 115.411 99.3375 111.329 99.4998C107.56 99.6493 102.798 99.8353 98.8503 99.7268C98.0032 99.7035 97.7852 98.6588 98.5477 98.2889V98.2889C101.564 96.8217 103.939 95.6791 103.153 93.6523C102.741 92.4691 101.512 91.8476 99.494 91.8028C95.2456 91.7067 86.0653 94.1627 84.4142 98.3039C83.4851 100.636 83.3313 105.138 92.7401 109.117C96.6104 110.757 107.542 112.756 111.761 113.175C111.815 113.18 111.869 113.186 111.923 113.191C113.039 113.313 113.245 114.655 112.317 115.286V115.286C111.883 115.58 111.312 115.606 110.842 115.374C109.115 114.523 106.749 113.82 104.919 115.067C104.101 115.62 103.636 116.436 103.614 117.365V117.365C103.563 119.324 103.782 121.562 102.33 122.878C100.529 124.511 99.1582 126.038 98.5477 127.307C97.5524 129.588 97.1465 133.321 99.0048 136.962C101.363 141.584 106.577 144.807 114.505 146.541C124.867 148.803 133.816 146.765 139.737 143.649C142.499 142.196 144.589 140.508 145.862 138.912C146.273 138.397 146.948 138.14 147.576 138.335V138.335C148.082 138.489 148.589 138.643 149.063 138.812C150.631 139.354 152.365 139.282 153.7 138.609C153.723 138.598 153.749 138.583 153.775 138.57C154.781 138.041 155.505 137.191 155.823 136.166C156.677 133.402 154.238 131.875 152.769 130.954" fill="white"/>
<path d="M210.624 148.072C207.851 149.693 205.867 149.437 204.672 147.304C203.52 145.128 204.373 143.315 207.232 141.864C211.755 139.56 215.531 133.651 218.56 124.136C218.645 123.923 218.581 123.816 218.368 123.816H214.656C211.456 123.816 209.856 122.771 209.856 120.68C209.856 118.589 211.456 117.544 214.656 117.544H219.648C220.032 117.544 220.267 117.352 220.352 116.968C220.779 114.579 222.165 113.597 224.512 114.024C226.901 114.451 227.947 115.517 227.648 117.224C227.605 117.437 227.691 117.544 227.904 117.544H249.6C252.8 117.544 254.4 118.589 254.4 120.68C254.4 122.771 252.8 123.816 249.6 123.816H226.752C226.283 123.816 225.984 124.051 225.856 124.52L225.152 126.696C225.067 126.909 225.131 127.016 225.344 127.016L245.76 126.824C247.979 126.824 249.792 127.293 251.2 128.232C252.565 129.213 252.523 131.069 251.072 133.8C250.219 135.421 247.829 137.661 243.904 140.52C243.733 140.648 243.755 140.733 243.968 140.776C248.405 142.099 251.627 142.845 253.632 143.016C256.832 143.315 258.325 144.595 258.112 146.856C257.856 149.16 256.149 150.12 252.992 149.736C247.659 149.139 242.496 147.752 237.504 145.576C236.736 145.235 235.968 145.235 235.2 145.576C231.019 147.581 227.051 148.904 223.296 149.544C220.139 150.099 218.389 149.267 218.048 147.048C217.707 144.829 219.051 143.379 222.08 142.696L228.736 141.16C228.949 141.117 228.971 141.032 228.8 140.904C226.197 139.112 223.915 137.128 221.952 134.952C221.824 134.781 221.717 134.781 221.632 134.952C218.133 141.48 214.464 145.853 210.624 148.072ZM235.2 137.448C235.925 137.789 236.629 137.768 237.312 137.384C239.275 136.36 240.981 135.123 242.432 133.672C242.56 133.501 242.517 133.416 242.304 133.416H229.12C228.907 133.416 228.885 133.48 229.056 133.608C230.933 135.187 232.981 136.467 235.2 137.448ZM212.032 100.52C208.789 100.648 207.147 99.752 207.104 97.832C207.061 95.8693 208.64 94.8453 211.84 94.76C227.925 94.4613 240.555 93.6507 249.728 92.328C252.885 91.8587 254.592 92.648 254.848 94.696C255.104 96.7867 253.632 97.9813 250.432 98.28L242.048 99.112C240.384 99.2827 238.72 99.4107 237.056 99.496L212.032 100.52ZM230.848 100.328C232.768 99.6453 234.005 100.008 234.56 101.416C235.157 102.781 235.691 104.317 236.16 106.024C236.288 106.451 236.587 106.664 237.056 106.664H240.768C241.451 106.664 241.963 106.365 242.304 105.768C243.669 103.379 244.587 101.565 245.056 100.328C245.525 99.048 246.784 98.8987 248.832 99.88C250.837 100.904 250.965 102.803 249.216 105.576L248.768 106.408C248.64 106.579 248.683 106.664 248.896 106.664H254.912C258.112 106.664 259.712 108.264 259.712 111.464V113.704C259.712 116.904 258.624 118.504 256.448 118.504C254.272 118.504 253.184 116.904 253.184 113.704V113.32C253.184 113.107 253.077 113 252.864 113H211.008C210.795 113 210.688 113.107 210.688 113.32V113.704C210.688 116.904 209.643 118.504 207.552 118.504C205.461 118.504 204.416 116.904 204.416 113.704V111.464C204.416 108.264 206.016 106.664 209.216 106.664H214.848C215.061 106.664 215.125 106.557 215.04 106.344C213.973 103.485 214.379 101.672 216.256 100.904C218.091 100.136 219.648 101.203 220.928 104.104C221.056 104.36 221.248 105 221.504 106.024C221.632 106.451 221.909 106.664 222.336 106.664H229.376C229.589 106.664 229.653 106.557 229.568 106.344L229.44 105.896C228.459 102.909 228.928 101.053 230.848 100.328ZM286.912 149.736C283.797 150.547 281.941 149.757 281.344 147.368C280.789 144.936 282.091 143.379 285.248 142.696C287.381 142.227 290.816 140.648 295.552 137.96C295.723 137.875 295.723 137.768 295.552 137.64C293.163 135.336 291.008 132.584 289.088 129.384C288.96 129.213 288.832 129.213 288.704 129.384C284.437 136.04 279.659 140.84 274.368 143.784C271.552 145.363 269.504 144.979 268.224 142.632C266.944 140.285 267.712 138.344 270.528 136.808C277.611 133.011 283.307 124.712 287.616 111.912C287.701 111.699 287.637 111.592 287.424 111.592H279.424C275.541 111.592 273.643 111.507 273.728 111.336C273.856 111.165 273.749 110.867 273.408 110.44C271.317 107.581 270.507 106.067 270.976 105.896C271.445 105.725 271.723 105.576 271.808 105.448C272.576 104.168 273.28 102.845 273.92 101.48C274.645 99.9867 275.307 98.5147 275.904 97.064C276.331 96.04 276.693 94.9307 276.992 93.736C277.291 92.4987 278.741 92.2213 281.344 92.904C283.989 93.6293 284.843 95.528 283.904 98.6C283.861 98.7707 282.923 100.584 281.088 104.04C281.003 104.211 281.067 104.296 281.28 104.296H289.152C289.579 104.296 289.835 104.083 289.92 103.656C290.901 99.56 291.477 96.7867 291.648 95.336C292.032 92.136 293.632 90.728 296.448 91.112C299.307 91.4533 300.523 93.2027 300.096 96.36C299.925 97.768 299.456 100.307 298.688 103.976C298.645 104.189 298.731 104.296 298.944 104.296H319.488C322.688 104.296 324.288 105.512 324.288 107.944C324.288 110.376 322.688 111.592 319.488 111.592H297.536C297.024 111.592 296.683 111.827 296.512 112.296L295.104 116.52C295.019 116.733 295.083 116.84 295.296 116.84L312 116.584C314.048 116.541 315.968 116.925 317.76 117.736C319.509 118.589 319.915 120.467 318.976 123.368C317.44 128.104 314.027 132.904 308.736 137.768C308.565 137.896 308.565 138.003 308.736 138.088C313.771 140.776 317.504 142.312 319.936 142.696C323.136 143.251 324.501 144.765 324.032 147.24C323.563 149.757 321.749 150.696 318.592 150.056C313.088 148.904 307.819 146.685 302.784 143.4C302.272 143.059 301.76 143.037 301.248 143.336C296.597 146.323 291.819 148.456 286.912 149.736ZM301.504 133.224C301.76 133.437 302.016 133.437 302.272 133.224C305.131 130.749 307.52 127.827 309.44 124.456C309.525 124.285 309.461 124.2 309.248 124.2H294.144C293.931 124.2 293.888 124.285 294.016 124.456C296.107 127.869 298.603 130.792 301.504 133.224ZM317.12 101.736C315.157 103.144 313.835 103.357 313.152 102.376C312.469 101.352 311.509 100.115 310.272 98.664C308.181 96.2747 307.968 94.3333 309.632 92.84C311.296 91.3467 313.216 91.752 315.392 94.056C317.525 96.36 318.848 97.8747 319.36 98.6C319.872 99.3253 319.125 100.371 317.12 101.736ZM366.784 149.864C362.389 149.864 359.403 149.011 357.824 147.304C356.288 145.64 355.52 142.376 355.52 137.512V134.312C355.52 134.099 355.413 133.992 355.2 133.992H343.424C343.211 133.992 343.104 134.099 343.104 134.312C343.104 136.616 341.803 137.768 339.2 137.768C336.555 137.768 335.232 136.168 335.232 132.968V104.808C335.232 101.608 336.832 100.008 340.032 100.008H355.2C355.413 100.008 355.52 99.9013 355.52 99.688V95.912C355.52 92.712 356.885 91.112 359.616 91.112C362.347 91.112 363.712 92.712 363.712 95.912V99.688C363.712 99.9013 363.819 100.008 364.032 100.008H379.136C382.336 100.008 383.936 101.608 383.936 104.808V129.192C383.936 132.392 382.336 133.992 379.136 133.992H364.032C363.819 133.992 363.712 134.099 363.712 134.312V137.576C363.712 139.581 363.925 140.861 364.352 141.416C364.821 141.928 365.931 142.184 367.68 142.184H378.176C379.669 142.184 380.693 141.651 381.248 140.584C381.803 139.475 382.144 138.131 382.272 136.552C382.443 134.973 383.808 134.312 386.368 134.568C388.971 134.824 390.101 136.552 389.76 139.752C389.461 142.483 388.565 144.808 387.072 146.728C385.451 148.819 382.741 149.864 378.944 149.864H366.784ZM343.104 126.248C343.104 126.461 343.211 126.568 343.424 126.568H355.2C355.413 126.568 355.52 126.461 355.52 126.248V120.936C355.52 120.723 355.413 120.616 355.2 120.616H343.424C343.211 120.616 343.104 120.723 343.104 120.936V126.248ZM363.712 126.248C363.712 126.461 363.819 126.568 364.032 126.568H375.808C376.021 126.568 376.128 126.461 376.128 126.248V120.936C376.128 120.723 376.021 120.616 375.808 120.616H364.032C363.819 120.616 363.712 120.723 363.712 120.936V126.248ZM343.104 113.32C343.104 113.533 343.211 113.64 343.424 113.64H355.2C355.413 113.64 355.52 113.533 355.52 113.32V107.752C355.52 107.539 355.413 107.432 355.2 107.432H343.424C343.211 107.432 343.104 107.539 343.104 107.752V113.32ZM363.712 113.32C363.712 113.533 363.819 113.64 364.032 113.64H375.808C376.021 113.64 376.128 113.533 376.128 113.32V107.752C376.128 107.539 376.021 107.432 375.808 107.432H364.032C363.819 107.432 363.712 107.539 363.712 107.752V113.32Z" fill="black" fill-opacity="0.8"/>
<defs>
<linearGradient id="paint0_linear" x1="120" y1="72" x2="120" y2="168" gradientUnits="userSpaceOnUse">
<stop stop-color="#A886F1"/>
<stop offset="1" stop-color="#8964D6"/>
</linearGradient>
</defs>
</svg>
